<svg width="22" height="22" viewBox="0 0 22 22" fill="none" xmlns="http://www.w3.org/2000/svg">
<path d="M4.9457 19.0266L2.65977 16.7385C2.49765 16.5771 2.36903 16.3852 2.28128 16.174C2.19353 15.9627 2.14838 15.7362 2.14844 15.5074C2.14844 15.0412 2.33105 14.6029 2.65977 14.2742L5.12187 11.8121C5.28328 11.65 5.47512 11.5214 5.68639 11.4336C5.89765 11.3459 6.12417 11.3007 6.35293 11.3008C6.81914 11.3008 7.25742 11.4834 7.58613 11.8121L9.38652 13.6125C10.3154 13.1911 11.1605 12.6051 11.8809 11.883C12.6048 11.1627 13.1928 10.3177 13.6168 9.38867L11.8164 7.58828C11.6543 7.42688 11.5257 7.23503 11.4379 7.02377C11.3502 6.81251 11.305 6.58599 11.3051 6.35723C11.3051 5.89102 11.4877 5.45274 11.8164 5.12402L14.2764 2.65977C14.4381 2.49745 14.6303 2.36872 14.8419 2.28096C15.0536 2.19321 15.2805 2.14817 15.5096 2.14844C15.9758 2.14844 16.4141 2.33106 16.7428 2.65977L19.0266 4.94356C19.5529 5.46777 19.8516 6.1918 19.8516 6.93516C19.8516 7.09199 19.8387 7.24238 19.8129 7.39063C19.3359 10.2867 17.7955 13.1592 15.4795 15.4773C13.1656 17.7934 10.2953 19.3316 7.39063 19.815C6.50332 19.9611 5.59023 19.6668 4.9457 19.0266Z" fill="#D1B39F"/>
</svg>
