<svg width="26" height="22" viewBox="0 0 26 22" fill="none" xmlns="http://www.w3.org/2000/svg">
<path d="M1.69502 10.1157C1.65213 9.9438 1.64898 9.76435 1.6858 9.591C1.72262 9.41765 1.79845 9.25497 1.90753 9.11531C2.01661 8.97564 2.15607 8.86266 2.31533 8.78494C2.4746 8.70722 2.64947 8.6668 2.82668 8.66675H23.1733C23.3506 8.6668 23.5254 8.70722 23.6847 8.78494C23.844 8.86266 23.9834 8.97564 24.0925 9.11531C24.2016 9.25497 24.2774 9.41765 24.3142 9.591C24.3511 9.76435 24.3479 9.9438 24.305 10.1157L22.1922 18.5659C22.066 19.0707 21.7747 19.5188 21.3646 19.8391C20.9545 20.1593 20.4492 20.3333 19.9288 20.3334H6.07118C5.55086 20.3333 5.04549 20.1593 4.6354 19.8391C4.22531 19.5188 3.93403 19.0707 3.80785 18.5659L1.69502 10.1169V10.1157Z" stroke="#1E1E1E" stroke-width="2" stroke-linejoin="round"/>
<path d="M20 8.66675L15.3333 1.66675M9.5 13.3334V15.6667V13.3334ZM16.5 13.3334V15.6667V13.3334ZM6 8.66675L10.6667 1.66675L6 8.66675Z" stroke="#1E1E1E" stroke-width="2" stroke-linecap="round"/>
</svg>
