<svg xmlns="http://www.w3.org/2000/svg" width="22" height="22" viewBox="0 0 22 22" fill="none"><path d="M19.9375 3.4375H2.0625C1.68223 3.4375 1.375 3.74473 1.375 4.125V17.875C1.375 18.2553 1.68223 18.5625 2.0625 18.5625H19.9375C20.3178 18.5625 20.625 18.2553 20.625 17.875V4.125C20.625 3.74473 20.3178 3.4375 19.9375 3.4375ZM18.2016 5.77715L11.4232 11.0516C11.2557 11.1826 11.0215 11.1826 10.8539 11.0516L4.07344 5.77715C4.04788 5.75742 4.02913 5.73019 4.01982 5.69928C4.01052 5.66836 4.01112 5.63531 4.02154 5.60475C4.03196 5.57419 4.05169 5.54766 4.07794 5.52888C4.1042 5.51009 4.13568 5.49999 4.16797 5.5H18.107C18.1393 5.49999 18.1708 5.51009 18.1971 5.52888C18.2233 5.54766 18.243 5.57419 18.2535 5.60475C18.2639 5.63531 18.2645 5.66836 18.2552 5.69928C18.2459 5.73019 18.2271 5.75742 18.2016 5.77715Z" fill="#D1B39F"></path></svg>