<svg width="30" height="30" viewBox="0 0 30 30" fill="none" xmlns="http://www.w3.org/2000/svg">
<path d="M26.25 25C26.25 25.6906 25.6906 26.25 25 26.25H5C4.30937 26.25 3.75 25.6906 3.75 25V5C3.75 4.30937 4.30937 3.75 5 3.75H25C25.6906 3.75 26.25 4.30937 26.25 5V25Z" fill="url(#paint0_linear_6_224)"/>
<path opacity="0.05" d="M15.625 23.7501V16.8751H13.125V13.1251H15.625V11.7888C15.625 8.63759 17.2913 6.90259 20.3156 6.90259C21.5625 6.90259 22.2388 6.99009 22.5644 7.03259L23.1006 7.10196L23.125 7.64009V10.6251H20.8531C20.1481 10.6251 20 11.4863 20 12.2095V13.1251H22.9519L22.3719 16.8751H20V23.7501H15.625Z" fill="black"/>
<path opacity="0.07" d="M15.9375 23.4376V16.5626H13.4375V13.4376H15.9375V11.7888C15.9375 8.79634 17.4513 7.21509 20.3156 7.21509C21.5475 7.21509 22.2094 7.30134 22.5281 7.34259L22.8006 7.37821L22.8131 7.65446V10.3126H20.8538C19.8394 10.3126 19.6881 11.5007 19.6881 12.2095V13.4376H22.5881L22.105 16.5626H19.6875V23.4376H15.9375Z" fill="black"/>
<path d="M20.8531 9.99998H22.5V7.65373C22.1925 7.61373 21.5431 7.52686 20.3156 7.52686C17.7525 7.52686 16.25 8.82686 16.25 11.7887V13.75H13.75V16.25H16.25V23.125H19.375V16.25H21.8363L22.2225 13.75H19.375V12.2094C19.375 11.0381 19.7575 9.99998 20.8531 9.99998Z" fill="white"/>
<defs>
<linearGradient id="paint0_linear_6_224" x1="3.8925" y1="3.06" x2="26.2981" y2="27.145" gradientUnits="userSpaceOnUse">
<stop stop-color="#0D61A9"/>
<stop offset="1" stop-color="#16528C"/>
</linearGradient>
</defs>
</svg>
