<svg width="30" height="30" viewBox="0 0 30 30" fill="none" xmlns="http://www.w3.org/2000/svg">
<path d="M15 27.5C21.9036 27.5 27.5 21.9036 27.5 15C27.5 8.09644 21.9036 2.5 15 2.5C8.09644 2.5 2.5 8.09644 2.5 15C2.5 21.9036 8.09644 27.5 15 27.5Z" fill="#E60023"/>
<path d="M15.2774 7.13501C9.88224 7.13501 7.01782 10.7566 7.01782 14.6994C7.01782 16.5331 7.99377 18.8153 9.55532 19.5422C9.79183 19.6523 9.91879 19.6047 9.97311 19.3754C10.0149 19.2014 10.2255 18.3523 10.3202 17.9576C10.3505 17.8317 10.3356 17.7235 10.2337 17.5994C9.71684 16.9725 9.3034 15.8206 9.3034 14.7466C9.3034 11.9893 11.3909 9.32156 14.9471 9.32156C18.0178 9.32156 20.1678 11.4143 20.1678 14.4071C20.1678 17.7884 18.4601 20.1312 16.2385 20.1312C15.0116 20.1312 14.0928 19.1163 14.3875 17.8716C14.7409 16.386 15.4231 14.7831 15.4231 13.71C15.4231 12.7504 14.9087 11.9494 13.8419 11.9494C12.5875 11.9494 11.5803 13.2465 11.5803 14.985C11.5803 16.0913 11.9543 16.8403 11.9543 16.8403C11.9543 16.8403 10.7154 22.0787 10.4885 23.0537C10.2372 24.1302 10.3352 25.6422 10.4439 26.6309C10.7258 26.7414 11.0079 26.852 11.2994 26.9422C11.8099 26.1123 12.5712 24.7511 12.8534 23.6658C13.0058 23.0807 13.6327 20.6941 13.6327 20.6941C14.0399 21.4716 15.2303 22.1297 16.4972 22.1297C20.2668 22.1297 22.9837 18.6629 22.9837 14.3547C22.9837 10.2244 19.614 7.13501 15.2774 7.13501Z" fill="white"/>
</svg>
