<svg xmlns="http://www.w3.org/2000/svg" width="22" height="20" viewBox="0 0 22 20" fill="none"><path d="M10.998 3.24782L10.6365 2.86939C9.66599 1.85354 8.00623 0.5 6.132 0.5C4.44569 0.5 3.044 1.08567 2.0651 2.06276C1.08627 3.03978 0.5 4.43826 0.5 6.12C0.5 7.95937 1.22106 9.48635 2.33417 10.8742C3.45687 12.2739 4.95353 13.503 6.4769 14.7513L6.4771 14.7514L6.51669 14.7839C7.92676 15.9405 9.42739 17.1714 10.5865 18.5438M10.998 3.24782L10.205 18.867M10.998 3.24782L11.3595 2.86939C12.3296 1.85395 13.9935 0.5 15.869 0.5C17.5548 0.5 18.9562 1.08564 19.935 2.06274C20.9137 3.03977 21.5 4.43826 21.5 6.12C21.5 7.95981 20.7785 9.48702 19.665 10.8749C18.5419 12.2746 17.0451 13.5034 15.5222 14.7512C15.5222 14.7512 15.5221 14.7512 15.5221 14.7512L15.5196 14.7533C14.0971 15.9184 12.5816 17.1595 11.4105 18.5438M10.998 3.24782L11.792 18.867M10.5865 18.5438C10.5867 18.544 10.5868 18.5442 10.587 18.5444L10.205 18.867M10.5865 18.5438C10.5864 18.5437 10.5863 18.5436 10.5862 18.5434L10.205 18.867M10.5865 18.5438C10.683 18.6573 10.8237 18.722 10.97 18.722H11.028C11.1743 18.722 11.3144 18.657 11.4105 18.5438M10.205 18.867C10.396 19.092 10.676 19.222 10.97 19.222H11.028C11.323 19.222 11.602 19.091 11.792 18.867M11.4105 18.5438C11.4104 18.5439 11.4103 18.544 11.4103 18.5441L11.792 18.867M11.4105 18.5438C11.4106 18.5437 11.4106 18.5437 11.4107 18.5436L11.792 18.867M10.998 2.524L10.6365 2.17861C10.6392 2.17571 10.642 2.1728 10.6448 2.16989C10.7718 2.2918 10.8898 2.41071 10.998 2.524ZM10.998 2.524L11.3595 2.17861C11.3568 2.17573 11.354 2.17284 11.3513 2.16995C11.2242 2.29184 11.1062 2.41073 10.998 2.524Z" fill="#FAFAFA" stroke="#393939"></path></svg>