<svg xmlns="http://www.w3.org/2000/svg" width="24" height="21" viewBox="0 0 24 21" fill="none"><path d="M17.2436 0.188232C14.9863 0.188232 13.0576 1.79716 11.9979 2.90639C10.9382 1.79716 9.01371 0.188232 6.75756 0.188232C2.86879 0.188232 0.15387 2.89885 0.15387 6.779C0.15387 11.0544 3.52572 13.8178 6.78771 16.4907C8.32771 17.7539 9.92156 19.0592 11.1439 20.5065C11.3496 20.7488 11.6511 20.8888 11.9677 20.8888H12.0302C12.3479 20.8888 12.6483 20.7478 12.8529 20.5065C14.0774 19.0592 15.6702 17.7528 17.2113 16.4907C20.4722 13.8188 23.8462 11.0555 23.8462 6.779C23.8462 2.89885 21.1313 0.188232 17.2436 0.188232Z" fill="#a81933"></path></svg>